<svg xmlns="http://www.w3.org/2000/svg" width="360" height="104" viewBox="0 0 360 104" role="img" aria-labelledby="title desc">
  <title id="title">Logo option A - Reading Compass</title>
  <desc id="desc">A restrained purple logo combining an open book, reading route dots, and the Yomeru wordmark.</desc>
  <rect x="8" y="20" width="64" height="64" rx="8" fill="#EADDFF"/>
  <path d="M24 34c7-3 13-2 16 1v35c-4-4-10-5-16-2V34Z" fill="#FFFBFE" stroke="#6750A4" stroke-width="3" stroke-linejoin="round"/>
  <path d="M40 35c4-3 11-4 17-1v34c-6-3-12-2-17 2V35Z" fill="#FFFBFE" stroke="#6750A4" stroke-width="3" stroke-linejoin="round"/>
  <path d="M40 35v35" stroke="#6750A4" stroke-width="3" stroke-linecap="round"/>
  <path d="M49 43h7M49 51h7" stroke="#6750A4" stroke-width="2.4" stroke-linecap="round" opacity=".72"/>
  <circle cx="28" cy="43" r="2.6" fill="#FFC107"/>
  <path d="M28 43c4 5 5 10 3 16" fill="none" stroke="#FFC107" stroke-width="2.4" stroke-linecap="round"/>
  <circle cx="31" cy="59" r="2.6" fill="#6750A4"/>
  <text x="92" y="48" fill="#1C1B1F" font-family="'Noto Serif JP','Noto Serif SC',serif" font-size="30" font-weight="650" letter-spacing="0">読める</text>
  <text x="94" y="72" fill="#625B71" font-family="'Noto Sans SC','Noto Sans JP',sans-serif" font-size="14" font-weight="500" letter-spacing="0">阅读辅助 · 升学信息</text>
</svg>
